<svg width="150" height="43" viewBox="0 0 150 43" fill="none" xmlns="http://www.w3.org/2000/svg">
<path d="M90.7908 28.2721C95.344 29.3995 100.074 27.5975 101.762 26.2813C101.817 26.2388 101.84 26.1657 101.824 26.0973L101.05 22.8517C101.024 22.7409 100.904 22.6818 100.803 22.7314C99.9308 23.1677 97.1357 24.3495 94.4067 24.3613C92.9334 24.3896 92.0476 23.4249 92.0707 21.9271C92.0802 21.302 92.221 20.3562 92.221 20.3562L101.919 20.0212C102.189 20.0118 102.429 19.8466 102.537 19.5966C103.774 16.726 105.965 7.82656 98.4576 8.01995C92.3754 8.17561 89.4205 13.6974 88.3855 16.0255C87.2296 18.6153 85.7006 25.9417 90.7908 28.2721ZM97.7724 12.3812C98.6604 12.3506 99.3886 12.9639 99.4737 13.589C99.6723 15.0631 98.9788 16.7803 98.9788 16.7803L93.0511 16.9808C93.5051 15.693 94.7345 12.4874 97.7724 12.3812Z" fill="#EE4777"/>
<path d="M90.7908 28.2721C95.344 29.3995 100.074 27.5975 101.762 26.2813C101.817 26.2388 101.84 26.1657 101.824 26.0973L101.05 22.8517C101.024 22.7409 100.904 22.6818 100.803 22.7314C99.9308 23.1677 97.1357 24.3495 94.4067 24.3613C92.9334 24.3896 92.0476 23.4249 92.0707 21.9271C92.0802 21.302 92.221 20.3562 92.221 20.3562L101.919 20.0212C102.189 20.0118 102.429 19.8466 102.537 19.5966C103.774 16.726 105.965 7.82656 98.4576 8.01995C92.3754 8.17561 89.4205 13.6974 88.3855 16.0255C87.2296 18.6153 85.7006 25.9417 90.7908 28.2721ZM97.7724 12.3812C98.6604 12.3506 99.3886 12.9639 99.4737 13.589C99.6723 15.0631 98.9788 16.7803 98.9788 16.7803L93.0511 16.9808C93.5051 15.693 94.7345 12.4874 97.7724 12.3812Z" fill="url(#paint0_linear_439_585)"/>
<path d="M10.3464 30.9772C15.3858 32.4821 23.2575 30.4159 24.6875 25.2715L27.0123 16.8603C27.0792 16.6243 26.9016 16.3932 26.6641 16.4003L17.7406 16.7069C17.4339 16.7163 17.1687 16.931 17.088 17.2328L16.2253 20.4006C16.1607 20.6341 16.3384 20.8654 16.5759 20.8559L20.3722 20.7238L19.5004 23.894C19.3252 24.5167 17.7314 26.3235 14.5902 26.1111C13.2986 26.0239 11.2966 25.1182 11.8571 21.7262C12.5074 17.7778 14.3987 11.7653 14.3987 11.7653C15.116 9.50802 16.8089 7.69181 19.6941 7.66118C21.9475 7.63753 22.9047 8.54332 23.0937 9.79107C23.1883 10.4138 22.8954 11.6687 22.7593 12.1686C22.7271 12.2866 22.8147 12.3999 22.9346 12.3975L28.1632 12.2182C28.2439 12.2158 28.3131 12.1593 28.3292 12.0791C28.5898 10.8784 28.6821 9.45137 28.689 8.45603C28.7052 5.52644 26.701 3.34226 24.2584 2.77853C22.2173 2.30682 15.3005 0.957597 10.5032 7.42521C8.78953 9.73442 7.79325 13.1311 6.99295 15.8907C6.19947 18.6293 6.05877 20.3275 5.83053 23.1698C5.56299 26.4107 6.99978 29.9912 10.3464 30.9772Z" fill="#EE4777"/>
<path d="M10.3464 30.9772C15.3858 32.4821 23.2575 30.4159 24.6875 25.2715L27.0123 16.8603C27.0792 16.6243 26.9016 16.3932 26.6641 16.4003L17.7406 16.7069C17.4339 16.7163 17.1687 16.931 17.088 17.2328L16.2253 20.4006C16.1607 20.6341 16.3384 20.8654 16.5759 20.8559L20.3722 20.7238L19.5004 23.894C19.3252 24.5167 17.7314 26.3235 14.5902 26.1111C13.2986 26.0239 11.2966 25.1182 11.8571 21.7262C12.5074 17.7778 14.3987 11.7653 14.3987 11.7653C15.116 9.50802 16.8089 7.69181 19.6941 7.66118C21.9475 7.63753 22.9047 8.54332 23.0937 9.79107C23.1883 10.4138 22.8954 11.6687 22.7593 12.1686C22.7271 12.2866 22.8147 12.3999 22.9346 12.3975L28.1632 12.2182C28.2439 12.2158 28.3131 12.1593 28.3292 12.0791C28.5898 10.8784 28.6821 9.45137 28.689 8.45603C28.7052 5.52644 26.701 3.34226 24.2584 2.77853C22.2173 2.30682 15.3005 0.957597 10.5032 7.42521C8.78953 9.73442 7.79325 13.1311 6.99295 15.8907C6.19947 18.6293 6.05877 20.3275 5.83053 23.1698C5.56299 26.4107 6.99978 29.9912 10.3464 30.9772Z" fill="url(#paint1_linear_439_585)"/>
<path d="M80.7325 28.9111C80.8092 28.9088 80.8754 28.8546 80.8964 28.7814L87.2391 5.75785C87.3011 5.53134 87.4976 5.37332 87.7278 5.36397L93.6786 5.1422C93.9833 5.13037 94.246 4.91816 94.329 4.61856L95.4723 0.457788C95.5375 0.224191 95.3599 -0.00693571 95.1224 0.00015927L76.7814 0.632258C76.4756 0.641718 76.2118 0.854027 76.1288 1.15589L74.9855 5.31678C74.9204 5.55027 75.098 5.78139 75.3355 5.77429L81.2379 5.57144C81.4754 5.56445 81.6509 5.79322 81.5889 6.02671C80.9311 8.42083 75.9197 26.5855 75.2945 28.8616C75.2619 28.9796 75.3523 29.0905 75.4699 29.0881L80.7325 28.9111Z" fill="#EE4777"/>
<path d="M80.7325 28.9111C80.8092 28.9088 80.8754 28.8546 80.8964 28.7814L87.2391 5.75785C87.3011 5.53134 87.4976 5.37332 87.7278 5.36397L93.6786 5.1422C93.9833 5.13037 94.246 4.91816 94.329 4.61856L95.4723 0.457788C95.5375 0.224191 95.3599 -0.00693571 95.1224 0.00015927L76.7814 0.632258C76.4756 0.641718 76.2118 0.854027 76.1288 1.15589L74.9855 5.31678C74.9204 5.55027 75.098 5.78139 75.3355 5.77429L81.2379 5.57144C81.4754 5.56445 81.6509 5.79322 81.5889 6.02671C80.9311 8.42083 75.9197 26.5855 75.2945 28.8616C75.2619 28.9796 75.3523 29.0905 75.4699 29.0881L80.7325 28.9111Z" fill="url(#paint2_linear_439_585)"/>
<path d="M116.51 7.4208C110.241 7.50099 108.091 12.1265 107.533 13.8696C107.457 14.1055 107.637 14.346 107.879 14.3389L111.599 14.2139C111.853 14.2045 112.088 14.0606 112.201 13.8271C112.441 13.3341 113.358 11.8504 115.006 11.7939C115.834 11.7656 116.742 12.0981 116.406 13.32C116.189 14.1102 115.605 16.233 115.605 16.233C106.548 16.1882 104.075 20.165 104.032 23.7126C104.004 25.9085 105.519 28.1752 108.43 28.2153C111.256 28.2555 112.219 27.121 112.676 26.8874L112.787 27.6682C112.8 27.7578 112.877 27.8262 112.966 27.8215L116.653 27.6941C116.96 27.6847 117.222 27.4724 117.305 27.1704L121.427 12.1759C122.125 9.63798 119.844 7.37833 116.51 7.4208ZM113.839 22.6676C113.25 24.1772 110.675 24.8188 109.609 24.4721C109.055 24.2904 108.714 23.7762 108.647 23.1842C108.474 21.6463 110.592 19.8631 112.713 19.6767C113.209 19.6343 114.092 19.6084 114.68 19.6084L113.839 22.6676Z" fill="#EE4777"/>
<path d="M116.51 7.4208C110.241 7.50099 108.091 12.1265 107.533 13.8696C107.457 14.1055 107.637 14.346 107.879 14.3389L111.599 14.2139C111.853 14.2045 112.088 14.0606 112.201 13.8271C112.441 13.3341 113.358 11.8504 115.006 11.7939C115.834 11.7656 116.742 12.0981 116.406 13.32C116.189 14.1102 115.605 16.233 115.605 16.233C106.548 16.1882 104.075 20.165 104.032 23.7126C104.004 25.9085 105.519 28.1752 108.43 28.2153C111.256 28.2555 112.219 27.121 112.676 26.8874L112.787 27.6682C112.8 27.7578 112.877 27.8262 112.966 27.8215L116.653 27.6941C116.96 27.6847 117.222 27.4724 117.305 27.1704L121.427 12.1759C122.125 9.63798 119.844 7.37833 116.51 7.4208ZM113.839 22.6676C113.25 24.1772 110.675 24.8188 109.609 24.4721C109.055 24.2904 108.714 23.7762 108.647 23.1842C108.474 21.6463 110.592 19.8631 112.713 19.6767C113.209 19.6343 114.092 19.6084 114.68 19.6084L113.839 22.6676Z" fill="url(#paint3_linear_439_585)"/>
<path d="M50.7751 29.9654C50.8511 29.963 50.9158 29.9112 50.9388 29.8356C51.2571 28.6917 53.688 19.9384 54.8966 15.438C54.8966 15.438 55.3325 13.8481 57.5973 13.7703C58.5452 13.7373 59.4909 14.478 59.281 15.287C59.1957 15.6195 55.8629 27.7246 55.3556 29.5739C55.3232 29.6918 55.4109 29.805 55.5309 29.8002L60.0628 29.6446C60.139 29.6422 60.2059 29.588 60.2267 29.5125L64.0234 15.6974C64.2766 14.7727 64.9113 13.4519 66.9215 13.4353C68.2414 13.426 68.7373 14.3506 68.5734 14.9639L64.6434 29.2483C64.6108 29.3663 64.6991 29.4795 64.8188 29.4771L69.8376 29.2932C69.9132 29.2908 69.9805 29.2365 70.0015 29.161L74.3645 13.19C74.8121 11.5579 73.8643 9.05053 70.2138 9.02924C66.3594 9.00807 64.5257 10.6214 64.5257 10.6214C64.5257 10.6214 63.3214 9.17544 60.9003 9.28165C57.7657 9.41839 56.172 10.8124 56.172 10.8124C56.3427 10.1897 55.8722 9.57416 55.2402 9.5977L51.2941 9.73455C51.2179 9.73692 51.151 9.79109 51.1302 9.86656L45.6226 29.9041C45.5903 30.022 45.678 30.1352 45.798 30.1329L50.7751 29.9654Z" fill="#EE4777"/>
<path d="M50.7751 29.9654C50.8511 29.963 50.9158 29.9112 50.9388 29.8356C51.2571 28.6917 53.688 19.9384 54.8966 15.438C54.8966 15.438 55.3325 13.8481 57.5973 13.7703C58.5452 13.7373 59.4909 14.478 59.281 15.287C59.1957 15.6195 55.8629 27.7246 55.3556 29.5739C55.3232 29.6918 55.4109 29.805 55.5309 29.8002L60.0628 29.6446C60.139 29.6422 60.2059 29.588 60.2267 29.5125L64.0234 15.6974C64.2766 14.7727 64.9113 13.4519 66.9215 13.4353C68.2414 13.426 68.7373 14.3506 68.5734 14.9639L64.6434 29.2483C64.6108 29.3663 64.6991 29.4795 64.8188 29.4771L69.8376 29.2932C69.9132 29.2908 69.9805 29.2365 70.0015 29.161L74.3645 13.19C74.8121 11.5579 73.8643 9.05053 70.2138 9.02924C66.3594 9.00807 64.5257 10.6214 64.5257 10.6214C64.5257 10.6214 63.3214 9.17544 60.9003 9.28165C57.7657 9.41839 56.172 10.8124 56.172 10.8124C56.3427 10.1897 55.8722 9.57416 55.2402 9.5977L51.2941 9.73455C51.2179 9.73692 51.151 9.79109 51.1302 9.86656L45.6226 29.9041C45.5903 30.022 45.678 30.1352 45.798 30.1329L50.7751 29.9654Z" fill="url(#paint4_linear_439_585)"/>
<path d="M126.159 27.3522C126.235 27.3499 126.302 27.2979 126.323 27.2225C126.641 26.0761 129.072 17.3252 130.278 12.8247C130.278 12.8247 130.714 11.235 132.979 11.1572C133.927 11.1241 134.873 11.8647 134.662 12.6738C134.577 13.0064 131.244 25.1114 130.738 26.9606C130.705 27.0785 130.792 27.1918 130.912 27.1871L135.444 27.0314C135.521 27.0291 135.587 26.9748 135.608 26.8993L139.405 13.0842C139.658 12.1596 140.293 10.8386 142.304 10.8222C143.623 10.8127 144.119 11.7373 143.955 12.3506L140.025 26.6351C139.992 26.7531 140.08 26.8687 140.2 26.864L145.217 26.6799C145.292 26.6775 145.36 26.6234 145.381 26.5479L149.744 10.5769C150.191 8.9446 149.244 6.43728 145.593 6.4161C141.739 6.39482 139.905 8.00817 139.905 8.00817C139.905 8.00817 138.701 6.5623 136.28 6.6684C133.145 6.80525 131.551 8.19931 131.551 8.19931C131.722 7.57656 131.251 6.96091 130.62 6.98456L126.673 7.1213C126.597 7.12366 126.53 7.17795 126.509 7.25342L121.002 27.2908C120.969 27.4088 121.057 27.5221 121.177 27.5197L126.159 27.3522Z" fill="#EE4777"/>
<path d="M126.159 27.3522C126.235 27.3499 126.302 27.2979 126.323 27.2225C126.641 26.0761 129.072 17.3252 130.278 12.8247C130.278 12.8247 130.714 11.235 132.979 11.1572C133.927 11.1241 134.873 11.8647 134.662 12.6738C134.577 13.0064 131.244 25.1114 130.738 26.9606C130.705 27.0785 130.792 27.1918 130.912 27.1871L135.444 27.0314C135.521 27.0291 135.587 26.9748 135.608 26.8993L139.405 13.0842C139.658 12.1596 140.293 10.8386 142.304 10.8222C143.623 10.8127 144.119 11.7373 143.955 12.3506L140.025 26.6351C139.992 26.7531 140.08 26.8687 140.2 26.864L145.217 26.6799C145.292 26.6775 145.36 26.6234 145.381 26.5479L149.744 10.5769C150.191 8.9446 149.244 6.43728 145.593 6.4161C141.739 6.39482 139.905 8.00817 139.905 8.00817C139.905 8.00817 138.701 6.5623 136.28 6.6684C133.145 6.80525 131.551 8.19931 131.551 8.19931C131.722 7.57656 131.251 6.96091 130.62 6.98456L126.673 7.1213C126.597 7.12366 126.53 7.17795 126.509 7.25342L121.002 27.2908C120.969 27.4088 121.057 27.5221 121.177 27.5197L126.159 27.3522Z" fill="url(#paint5_linear_439_585)"/>
<path d="M143.997 31.0718L36.0741 34.7891C36.7061 33.4777 46.1622 13.8978 47.839 10.3833C47.9566 10.138 47.7767 9.85497 47.5091 9.86679C46.1668 9.92334 42.8457 10.0578 42.8457 10.0578C42.7188 10.0625 42.6035 10.138 42.5458 10.2559L36.7798 22.2619L36.5654 10.6404C36.5607 10.4399 36.3993 10.2818 36.2056 10.2889C35.1078 10.3196 31.8327 10.414 31.8327 10.414C31.6389 10.4187 31.4891 10.5838 31.4914 10.7796L31.8904 30.541L29.7108 35.0109L1.90965 35.9685L0 42.9999L144.011 31.3548C144.068 31.3501 144.117 31.31 144.133 31.2511C144.158 31.1591 144.088 31.0694 143.997 31.0718Z" fill="#EE4777"/>
<path d="M143.997 31.0718L36.0741 34.7891C36.7061 33.4777 46.1622 13.8978 47.839 10.3833C47.9566 10.138 47.7767 9.85497 47.5091 9.86679C46.1668 9.92334 42.8457 10.0578 42.8457 10.0578C42.7188 10.0625 42.6035 10.138 42.5458 10.2559L36.7798 22.2619L36.5654 10.6404C36.5607 10.4399 36.3993 10.2818 36.2056 10.2889C35.1078 10.3196 31.8327 10.414 31.8327 10.414C31.6389 10.4187 31.4891 10.5838 31.4914 10.7796L31.8904 30.541L29.7108 35.0109L1.90965 35.9685L0 42.9999L144.011 31.3548C144.068 31.3501 144.117 31.31 144.133 31.2511C144.158 31.1591 144.088 31.0694 143.997 31.0718Z" fill="url(#paint6_linear_439_585)"/>
<defs>
<linearGradient id="paint0_linear_439_585" x1="10" y1="16" x2="150" y2="21" gradientUnits="userSpaceOnUse">
<stop stop-color="#B92655"/>
<stop offset="1" stop-color="#E42F81"/>
</linearGradient>
<linearGradient id="paint1_linear_439_585" x1="10" y1="16" x2="150" y2="21" gradientUnits="userSpaceOnUse">
<stop stop-color="#B92655"/>
<stop offset="1" stop-color="#E42F81"/>
</linearGradient>
<linearGradient id="paint2_linear_439_585" x1="10" y1="16" x2="150" y2="21" gradientUnits="userSpaceOnUse">
<stop stop-color="#B92655"/>
<stop offset="1" stop-color="#E42F81"/>
</linearGradient>
<linearGradient id="paint3_linear_439_585" x1="10" y1="16" x2="150" y2="21" gradientUnits="userSpaceOnUse">
<stop stop-color="#B92655"/>
<stop offset="1" stop-color="#E42F81"/>
</linearGradient>
<linearGradient id="paint4_linear_439_585" x1="10" y1="16" x2="150" y2="21" gradientUnits="userSpaceOnUse">
<stop stop-color="#B92655"/>
<stop offset="1" stop-color="#E42F81"/>
</linearGradient>
<linearGradient id="paint5_linear_439_585" x1="10" y1="16" x2="150" y2="21" gradientUnits="userSpaceOnUse">
<stop stop-color="#B92655"/>
<stop offset="1" stop-color="#E42F81"/>
</linearGradient>
<linearGradient id="paint6_linear_439_585" x1="10" y1="16" x2="150" y2="21" gradientUnits="userSpaceOnUse">
<stop stop-color="#B92655"/>
<stop offset="1" stop-color="#E42F81"/>
</linearGradient>
</defs>
</svg>
